<svg xmlns="http://www.w3.org/2000/svg" width="26" height="26" viewBox="0 0 26 26" fill="none">
  <rect width="26" height="26" rx="3" fill="#5CBB73"/>
  <path fill-rule="evenodd" clip-rule="evenodd" d="M23.7208 9.60437L15.1508 5.38928C14.1138 4.87024 12.3858 4.87024 11.3488 5.38928L2.77775 9.60535C1.74075 10.1244 1.74075 10.9532 2.77775 11.4713L6.88975 13.5114V17.5553C6.88975 19.0753 9.75975 20.3204 13.2498 20.3204C16.7407 20.3204 19.6088 19.0753 19.6088 17.5553V13.5114L23.7208 11.5052C24.7928 10.9874 24.7928 10.1234 23.7208 9.60437ZM13.2488 18.6942C10.8298 18.6942 8.82476 17.9344 8.82476 16.9664C8.82476 15.9984 10.7948 15.2384 13.2488 15.2384C15.6678 15.2384 17.6727 15.9984 17.6727 16.9664C17.6388 17.8993 15.6688 18.6942 13.2488 18.6942Z" fill="white"/>
</svg>