<svg xmlns="http://www.w3.org/2000/svg" width="30" height="30" viewBox="0 0 30 30" fill="none">
  <rect x="3" y="3" width="25" height="25" rx="12.5" fill="white"/>
  <path fill-rule="evenodd" clip-rule="evenodd" d="M30 15C30 23.284 23.284 30 15 30C6.716 30 0 23.284 0 15C0 6.716 6.716 0 15 0C23.284 0 30 6.716 30 15ZM16.9 8.397L25.472 12.613C26.544 13.132 26.544 13.996 25.472 14.514L21.36 16.52V20.564C21.36 22.084 18.492 23.329 15.001 23.329C11.511 23.329 8.641 22.084 8.641 20.564V16.52L4.529 14.48C3.492 13.962 3.492 13.133 4.529 12.614L13.1 8.398C14.137 7.879 15.865 7.879 16.902 8.398L16.9 8.397ZM10.576 19.975C10.576 20.943 12.581 21.703 15 21.703C17.42 21.703 19.39 20.908 19.424 19.975C19.424 19.007 17.419 18.247 15 18.247C12.546 18.247 10.576 19.007 10.576 19.975Z" fill="#5CBB73"/>
</svg>