<svg xmlns="http://www.w3.org/2000/svg" width="36" height="36" fill="none"><g clip-path="url(#a)"><path fill-rule="evenodd" clip-rule="evenodd" d="m10.75 6.42.006-.023c.762-2.845 5.705-3.993 11.04-2.564 5.334 1.43 9.04 4.895 8.279 7.74L24.898 30.89c-.762 2.845-5.705 3.993-11.04 2.564-5.334-1.43-9.04-4.895-8.278-7.74l.01-.038 5.16-19.258Z" fill="#D2EEF8"/><ellipse cx="20.674" cy="8.019" rx="7.333" ry="3.667" transform="rotate(15 20.674 8.019)" fill="#207295"/><path fill-rule="evenodd" clip-rule="evenodd" d="m26.602 6.502-.006.024-.511 1.907c-.381 1.423-2.997 1.958-5.842 1.195-2.845-.762-4.843-2.533-4.461-3.956v-.001l.517-1.93c.382-1.423 2.997-1.958 5.842-1.196 2.845.763 4.843 2.534 4.462 3.957Z" fill="#3FD9DD"/><path d="m24.393 22.474-1.898 7.084m3.45-12.88-.517 1.933" stroke="#F6FDFF" stroke-width="2" stroke-linecap="round"/><path d="m11.76 22.699.958.26c.552.15.814.81.536 1.355L11.628 27.5c-.472.926.572 1.828 1.342 1.16l7.021-6.096c.768-.667.532-1.95-.405-2.204l-1.192-.324c-.535-.145-.8-.772-.556-1.312l1.51-3.338c.427-.943-.648-1.788-1.39-1.092l-6.64 6.234c-.726.682-.473 1.921.443 2.17Z" fill="#2ECED2"/></g><defs><clipPath id="a"><path fill="white" d="M0 0h36v36H0z"/></clipPath></defs></svg>