<svg xmlns="http://www.w3.org/2000/svg" width="36" height="36" fill="none"><path d="M14.718 9.746h6.564V7.278a3.282 3.282 0 0 0-6.564 0v2.468Z" fill="#FCD447"/><path fill-rule="evenodd" clip-rule="evenodd" d="M18 8.602c-.936.025-1.8.144-2.461.324v-1.72a1.57 1.57 0 0 1 1.328-1.552.982.982 0 0 1 1.133.97v1.978Z" fill="#FFDF60"/><path d="M7.333 24.535h21.333v-6.584c0-5.89-4.775-10.666-10.666-10.666S7.333 12.06 7.333 17.95v6.584Z" fill="#FFDF60"/><path d="M18 20.016c2.828 0 5.442.428 7.395 1.161.972.365 1.844.83 2.495 1.407.65.577 1.188 1.372 1.188 2.36 0 .989-.538 1.783-1.188 2.36-.651.578-1.523 1.042-2.495 1.407-1.953.733-4.567 1.161-7.395 1.161-2.828 0-5.443-.428-7.395-1.161-.972-.365-1.844-.83-2.495-1.407-.65-.577-1.188-1.371-1.188-2.36 0-.988.538-1.783 1.188-2.36.651-.578 1.523-1.042 2.495-1.407 1.952-.733 4.567-1.16 7.395-1.16Z" fill="#D48E39" stroke="#FFDF60" stroke-width="2.463"/><path fill-rule="evenodd" clip-rule="evenodd" d="M18 26.176a3.282 3.282 0 0 1-3.282-3.282v-1.438a25.07 25.07 0 0 1 3.282-.21c1.15 0 2.256.074 3.282.21v1.438A3.282 3.282 0 0 1 18 26.176Z" fill="#EDB64A"/><path fill-rule="evenodd" clip-rule="evenodd" d="M15.793 21.34v1.782a1.471 1.471 0 0 0 2.943 0v-1.839h-2.122c-.277.015-.551.034-.82.057Z" fill="#FAC152"/><path d="M17.18 19.604c-2.237 0-4.264.314-5.745.822" stroke="#FFFB96" stroke-width="1.642" stroke-linecap="round"/><path fill-rule="evenodd" clip-rule="evenodd" d="M17.18 18.009c-2.184.059-4.202.345-5.744.776V14.55a3.67 3.67 0 0 1 3.086-3.622 2.293 2.293 0 0 1 2.658 2.264v4.818Z" fill="#FFFB96"/></svg>