<svg xmlns="http://www.w3.org/2000/svg" width="33" height="24" viewBox="0 0 33 24" fill="none">
  <path fill-rule="evenodd" clip-rule="evenodd" d="M2.00272e-05 2.33329C2.00272e-05 1.04469 1.04469 0 2.33335 0H30.3333C31.622 0 32.6667 1.04469 32.6667 2.33329C32.6667 3.62199 31.622 4.66669 30.3333 4.66669H2.33335C1.04469 4.66669 2.00272e-05 3.62199 2.00272e-05 2.33329ZM0 11.667C0 10.3783 1.04467 9.33369 2.33333 9.33369H30.3333C31.622 9.33369 32.6666 10.3783 32.6666 11.667C32.6666 12.9557 31.622 14.0003 30.3333 14.0003H2.33333C1.04467 14.0003 0 12.9557 0 11.667ZM2.33333 18.667C1.04467 18.667 0 19.7117 0 21.0003C0 22.289 1.04467 23.3337 2.33333 23.3337H30.3333C31.622 23.3337 32.6666 22.289 32.6666 21.0003C32.6666 19.7117 31.622 18.667 30.3333 18.667H2.33333Z" fill="#5F8DB0"/>
</svg>