<svg xmlns="http://www.w3.org/2000/svg" width="54" height="54" viewBox="0 0 54 54" fill="none"> <g clip-path="url(#clip0)"> <rect x="4.5" y="10.5" width="45" height="33" rx="3.24" fill="#3EC886"/> <rect x="7.5" y="13.5" width="39" height="27" rx="2.16" fill="white"/> <path d="M37.0387 16.8751C37.2783 16.5859 37.7217 16.5859 37.9613 16.8751V16.8751C38.1537 17.1072 38.4886 17.1603 38.7433 16.9989V16.9989C39.0605 16.798 39.4823 16.935 39.6208 17.2841V17.2841C39.732 17.5643 40.0342 17.7182 40.3262 17.6435V17.6435C40.69 17.5504 41.0488 17.8111 41.0727 18.1858V18.1858C41.0919 18.4867 41.3316 18.7265 41.6325 18.7457V18.7457C42.0073 18.7695 42.268 19.1283 42.1749 19.4921V19.4921C42.1001 19.7842 42.2541 20.0863 42.5343 20.1975V20.1975C42.8833 20.3361 43.0204 20.7578 42.8194 21.0751V21.0751C42.6581 21.3297 42.7111 21.6647 42.9433 21.857V21.857C43.2324 22.0966 43.2324 22.5401 42.9433 22.7797V22.7797C42.7111 22.9721 42.6581 23.307 42.8194 23.5617V23.5617C43.0204 23.8789 42.8833 24.3007 42.5343 24.4392V24.4392C42.2541 24.5504 42.1001 24.8525 42.1749 25.1446V25.1446C42.268 25.5084 42.0073 25.8672 41.6325 25.8911V25.8911C41.3316 25.9102 41.0919 26.15 41.0727 26.4509V26.4509C41.0488 26.8256 40.69 27.0863 40.3262 26.9932V26.9932C40.0342 26.9185 39.732 27.0724 39.6208 27.3527V27.3527C39.4823 27.7017 39.0605 27.8387 38.7433 27.6378V27.6378C38.4886 27.4764 38.1537 27.5295 37.9613 27.7616V27.7616C37.7217 28.0508 37.2783 28.0508 37.0387 27.7616V27.7616C36.8463 27.5295 36.5114 27.4764 36.2567 27.6378V27.6378C35.9395 27.8387 35.5177 27.7017 35.3792 27.3527V27.3527C35.268 27.0724 34.9658 26.9185 34.6738 26.9932V26.9932C34.31 27.0863 33.9512 26.8256 33.9273 26.4509V26.4509C33.9081 26.15 33.6684 25.9102 33.3675 25.8911V25.8911C32.9927 25.8672 32.732 25.5084 32.8251 25.1446V25.1446C32.8999 24.8525 32.7459 24.5504 32.4657 24.4392V24.4392C32.1167 24.3007 31.9796 23.8789 32.1806 23.5617V23.5617C32.3419 23.307 32.2889 22.9721 32.0567 22.7797V22.7797C31.7676 22.5401 31.7676 22.0966 32.0567 21.857V21.857C32.2889 21.6647 32.3419 21.3297 32.1806 21.0751V21.0751C31.9796 20.7578 32.1167 20.3361 32.4657 20.1975V20.1975C32.7459 20.0863 32.8999 19.7842 32.8251 19.4921V19.4921C32.732 19.1283 32.9927 18.7695 33.3675 18.7457V18.7457C33.6684 18.7265 33.9081 18.4867 33.9273 18.1858V18.1858C33.9512 17.8111 34.31 17.5504 34.6738 17.6435V17.6435C34.9658 17.7182 35.268 17.5643 35.3792 17.2841V17.2841C35.5177 16.935 35.9395 16.798 36.2567 16.9989V16.9989C36.5114 17.1603 36.8463 17.1072 37.0387 16.8751V16.8751Z" fill="#E5BF73"/> <circle cx="37.5004" cy="22.3168" r="2.85" fill="white"/> <circle cx="37.5011" cy="22.3165" r="1.9239" fill="#E5BF73"/> <path d="M41.2724 20.7837C40.67 19.2742 39.2084 18.209 37.5009 18.209C35.7934 18.209 34.3318 19.2742 33.7295 20.7837M33.7295 23.8628C34.3318 25.3724 35.7934 26.4376 37.5009 26.4376C39.2084 26.4376 40.67 25.3724 41.2724 23.8628" stroke="#CB9850" stroke-width="0.545177" stroke-linecap="round" stroke-linejoin="round"/> <path d="M36.7729 30.9823C36.3901 32.7523 33.6339 36.0444 33.3277 36.1152C32.9449 36.2037 36.7729 32.5753 36.7729 33.1948C36.7729 33.8142 35.146 34.6992 35.6245 35.2302C36.103 35.7612 39.1655 33.6372 39.8354 32.2213C40.5053 30.8053 39.5483 30.6283 38.3998 32.4868C37.2514 34.3452 36.1926 36.6404 37.9213 35.7612C39.8354 34.7877 41.4623 32.2213 41.9408 30.7168M34.189 32.9293C34.189 33.4602 34.0933 33.9027 33.7105 34.2567" stroke="#CBD7E3" stroke-width="0.54" stroke-linecap="round"/> <rect x="12" y="18" width="12" height="3" rx="1.5" fill="#CBD7E3"/> <rect x="12" y="22.5" width="16.5" height="3" rx="1.5" fill="#3EC886"/> <rect x="12" y="33" width="6" height="3" rx="1.5" fill="#CBD7E3"/> <rect x="19.5" y="33" width="10.5" height="3" rx="1.5" fill="#CBD7E3"/> </g> <defs> <clipPath id="clip0"> <rect width="45" height="33" fill="white" transform="translate(4.5 10.5)"/> </clipPath> </defs> </svg>