<svg xmlns="http://www.w3.org/2000/svg" width="31" height="30" fill="none"><path opacity=".4" d="M3.625 8.75c0-1.726 1.4-3.125 3.125-3.125h17.5c1.726 0 3.125 1.4 3.125 3.125v18.832a1.25 1.25 0 0 1-1.682 1.173l-9.76-3.596a1.25 1.25 0 0 0-.865 0l-9.76 3.596a1.25 1.25 0 0 1-1.683-1.173V8.75Z" fill="#7C2E2F"/><path d="M3.625 5.625c0-1.726 1.4-3.125 3.125-3.125h17.5c1.726 0 3.125 1.4 3.125 3.125v19.457a1.25 1.25 0 0 1-1.682 1.173l-9.76-3.596a1.25 1.25 0 0 0-.865 0l-9.76 3.596a1.25 1.25 0 0 1-1.683-1.173V5.625Z" fill="#FFED60"/><path d="M13.43 18.273c-.14.233-.31.384-.508.454a.954.954 0 0 1-.595.053 1.04 1.04 0 0 1-.507-.28 1.103 1.103 0 0 1-.245-.543c-.035-.21.018-.431.158-.665l6.282-10.885c.14-.245.31-.408.508-.49a.828.828 0 0 1 .577-.034.983.983 0 0 1 .508.297.94.94 0 0 1 .262.525c.035.21-.018.432-.158.665L13.43 18.272Zm-2.205-4.76c-1.015 0-1.803-.339-2.362-1.015-.56-.689-.84-1.61-.84-2.765 0-.782.122-1.453.367-2.013.257-.56.624-.992 1.102-1.295.49-.303 1.068-.455 1.733-.455 1.003 0 1.785.344 2.345 1.033.572.676.857 1.586.857 2.73 0 .77-.128 1.44-.384 2.012a2.94 2.94 0 0 1-1.085 1.313c-.479.303-1.056.454-1.733.454Zm0-1.68a.82.82 0 0 0 .578-.21c.163-.152.285-.38.367-.683.093-.315.14-.717.14-1.207 0-.736-.1-1.26-.298-1.575-.186-.327-.449-.49-.787-.49a.883.883 0 0 0-.595.21c-.163.14-.286.361-.368.665-.081.291-.122.688-.122 1.19 0 .746.093 1.283.28 1.61.187.326.455.49.805.49Zm9.013 6.86c-1.015 0-1.803-.345-2.363-1.033s-.84-1.61-.84-2.765c0-.77.128-1.435.385-1.995s.624-.992 1.102-1.295c.479-.303 1.05-.455 1.716-.455 1.003 0 1.785.338 2.345 1.015.571.677.857 1.587.857 2.73 0 .77-.128 1.44-.385 2.012-.245.572-.607 1.015-1.085 1.33-.478.304-1.056.456-1.732.456Zm0-1.698c.233 0 .425-.07.577-.21.163-.14.286-.367.367-.683.094-.315.14-.717.14-1.207 0-.735-.099-1.26-.297-1.575-.187-.327-.45-.49-.787-.49a.883.883 0 0 0-.596.21c-.151.14-.274.362-.367.665-.082.303-.122.7-.122 1.19 0 .758.093 1.3.28 1.628.186.314.454.472.805.472Z" fill="#FD604D"/></svg>