<svg xmlns="http://www.w3.org/2000/svg" width="54" height="54" fill="none"><path d="M27 48c11.6 0 21.002-9.4 21.002-20.998s-9.402-21-21-21C15.402 6.003 6 15.405 6 27.003 6 38.599 15.402 48 27 48Z" fill="#4080FF"/><path fill-rule="evenodd" clip-rule="evenodd" d="M40.846 20.298a2.333 2.333 0 0 1-1.082.435l-3.725.484c-.34.045-.667.164-.957.349l-3.111 1.99a2.333 2.333 0 0 0-1.047 2.339l1.115 6.893c.093.57-.03 1.155-.345 1.64l-2.47 3.813a2.333 2.333 0 0 1-1.522 1.024l-1.17.222c-.5.095-1.018.024-1.474-.202l-.191-.095a2.333 2.333 0 0 1-1.251-1.633l-.567-2.834a2.333 2.333 0 0 0-1.137-1.572l-4.737-2.687a2.333 2.333 0 0 1-1.182-2.03v-3.266c0-.739.35-1.434.943-1.874l3.855-2.86a2.333 2.333 0 0 1 1.025-.43l2.397-.38a2.334 2.334 0 0 0 1.966-2.393l-.007-.206a2.333 2.333 0 0 0-2.166-2.24l-2.207-.157a2.334 2.334 0 0 1-.423-.07l-9.221-2.406c2.267-2.256 5-3.965 7.998-5.004a20.82 20.82 0 0 1 9.33-.996 20.953 20.953 0 0 1 8.839 3.205 21.466 21.466 0 0 1 6.624 6.781l.255.953-4.355 3.207Z" fill="#5BE589"/><path fill-rule="evenodd" clip-rule="evenodd" d="M6.019 27.908C2.226 32.847.82 37.662 2.75 41.005c3.59 6.218 17.357 4.99 30.749-2.742s21.338-19.04 17.748-25.258c-1.929-3.342-6.797-4.533-12.967-3.72a21.094 21.094 0 0 1 3.453 2.752c4.048-.028 6.165 1.167 6.916 2.468.862 1.493.704 4.473-2.362 8.836-2.909 4.14-7.883 8.626-14.288 12.324-6.406 3.699-12.778 5.763-17.817 6.212-5.312.474-7.972-.88-8.834-2.372-.751-1.301-.728-3.732 1.321-7.224a20.992 20.992 0 0 1-.651-4.373Z" fill="#72E5E5"/></svg>