<svg xmlns="http://www.w3.org/2000/svg" width="54" height="54" fill="none"><circle cx="27" cy="27" r="22.5" fill="#FF7366"/><path d="M27 47.25a19.86 19.86 0 0 0 10.207-2.716c9.604-5.59 12.894-17.973 7.35-27.657A20.04 20.04 0 0 0 27 6.75" stroke="#D9584C" stroke-width="4.5" stroke-linecap="round" stroke-linejoin="round"/><circle cx="27" cy="24.75" r="18" fill="white" stroke="#FF7366" stroke-width="4.5"/><circle cx="27" cy="24.75" r="9" fill="white" stroke="#FF7366" stroke-width="4.5"/><circle cx="27" cy="24.75" r="2.25" fill="#FF7366"/><path d="M27.029 33.869c.018-.272.134-.528.326-.721l8.418-8.418c.193-.193.45-.309.721-.327l4.546-.303c1.036-.07 1.605 1.183.87 1.918L28.643 39.285c-.734.734-1.987.166-1.918-.87l.303-4.546Z" fill="#5E5A7A"/><path d="M26.92 25.6a.95.95 0 0 1 1.306-1.306l9.317 5.734a3.554 3.554 0 1 1-4.89 4.89L26.919 25.6Z" fill="#FFD580"/><circle cx="35.813" cy="33.188" r="1.688" fill="#FFF7CC"/></svg>