<svg xmlns="http://www.w3.org/2000/svg" width="36" height="36" fill="none"><path opacity=".1" d="M23.667 26.43v.008c0 1.6-2.538 2.897-5.667 2.897-3.13 0-5.667-1.297-5.667-2.897v-.707c-.003-.894-.483-1.703-1.18-2.243a11.657 11.657 0 0 1-4.486-9.234C6.667 7.855 11.74 2.668 18 2.668s11.333 5.187 11.333 11.586c0 3.77-1.76 7.118-4.486 9.234-.7.542-1.18 1.355-1.18 2.252v.69Z" fill="#D9F2FF"/><path opacity=".3" fill-rule="evenodd" clip-rule="evenodd" d="M22.03 26.408v-.668c0-1.499.798-2.756 1.813-3.545 2.338-1.814 3.854-4.69 3.854-7.94 0-5.53-4.375-9.95-9.697-9.95-5.322 0-9.697 4.42-9.697 9.95 0 3.25 1.516 6.126 3.853 7.94 1.013.786 1.808 2.038 1.814 3.53v.683c.011.03.11.285.768.621.75.384 1.901.67 3.262.67 1.36 0 2.512-.286 3.262-.67.658-.336.756-.591.768-.62Zm-8.06.03Zm9.697-.698v.698c0 1.6-2.538 2.897-5.667 2.897-3.13 0-5.667-1.297-5.667-2.897v-.707c-.003-.894-.483-1.703-1.18-2.243a11.657 11.657 0 0 1-4.486-9.234C6.667 7.855 11.74 2.668 18 2.668s11.333 5.187 11.333 11.586c0 3.77-1.76 7.118-4.486 9.234-.7.542-1.18 1.355-1.18 2.252Z" fill="#96CCE8"/><path d="M14.666 20c0-4.75 3.334-5.887 3.334 0 0-5.679 3.333-4.75 3.333 0" stroke="#AFD0E8" stroke-width="2" stroke-linecap="round" stroke-linejoin="round"/><path d="m14.666 20.163 2.858 6.503h.714L21.333 20" stroke="#85A9C4" stroke-width="2" stroke-linecap="round"/><ellipse cx="13.021" cy="10.721" rx="3.333" ry="2.333" transform="rotate(120 13.02 10.72)" fill="#EDF9FF"/><path fill-rule="evenodd" clip-rule="evenodd" d="M18 33.335c3.314 0 6-1.493 6-3.334V28c0-1.842-2.686-3.334-6-3.334s-6 1.492-6 3.333v2.002c0 1.841 2.686 3.334 6 3.334Z" fill="#ADC6D8"/><ellipse cx="18" cy="32.001" rx="3.333" ry="1.333" fill="#7499BF"/></svg>