<svg xmlns="http://www.w3.org/2000/svg" width="36" height="36" fill="none"><path d="M5.222 6.563c-2.055 2.07-2.877 4.355-2.781 6.71.094 2.312 1.07 4.605 2.436 6.756 2.554 4.022 6.664 7.826 9.762 10.695l.596.552a4.079 4.079 0 0 0 5.523.001l.61-.565c3.099-2.865 7.204-6.66 9.756-10.675 1.366-2.15 2.343-4.443 2.436-6.757.094-2.356-.73-4.643-2.79-6.717a9.439 9.439 0 0 0-12.774-.587 9.439 9.439 0 0 0-12.774.587Z" fill="#FF6565" stroke="#FFF266" stroke-width="1.8"/><path d="M22 19.333c0 1.834-1.787 3.334-4 3.334s-4-1.5-4-3.334" fill="white"/><path d="M22 19.333c0 1.834-1.787 3.334-4 3.334s-4-1.5-4-3.334" stroke="#C43E4E" stroke-width="2.156" stroke-miterlimit="10" stroke-linecap="round"/><path fill-rule="evenodd" clip-rule="evenodd" d="M12.745 14.667c0-.094.042-.222.198-.351a1.14 1.14 0 0 1 .724-.238c.313 0 .566.106.724.238.155.129.198.257.198.351a1.078 1.078 0 0 0 2.156 0c0-1.7-1.578-2.745-3.078-2.745-1.5 0-3.078 1.045-3.078 2.745a1.078 1.078 0 0 0 2.156 0Zm8.708 0c0-.094.043-.222.198-.351a1.14 1.14 0 0 1 .724-.238c.313 0 .566.106.724.238.156.129.198.257.198.351a1.078 1.078 0 0 0 2.156 0c0-1.7-1.578-2.745-3.078-2.745-1.5 0-3.078 1.045-3.078 2.745a1.078 1.078 0 0 0 2.156 0Z" fill="#C43E4E"/><path d="M6.948 12.206C7.566 9.734 9.83 8 12.378 8c1.36 0 1.98 1.732.892 2.548l-4.142 3.106c-1.045.784-2.497-.18-2.18-1.448Z" fill="#FFA487"/></svg>