<svg xmlns="http://www.w3.org/2000/svg" width="19" height="20" viewBox="0 0 19 20" fill="none">
  <path d="M4.00033 0C3.26395 0 2.667 0.59695 2.667 1.33333V4C2.667 4.73638 3.26395 5.33333 4.00033 5.33333H6.667C7.4034 5.33333 8.0003 4.7363 8.0003 3.99992H14C15.1046 3.99992 16 4.89535 16 5.99992C16 7.10449 15.1046 7.99995 14 7.99995H4.66667C2.08934 7.99995 0 10.0892 0 12.6665C0 15.2439 2.08934 17.3333 4.66667 17.3333H12.7811L12.3905 17.7239C11.8698 18.2446 11.8698 19.0887 12.3905 19.6094C12.9112 20.1301 13.7554 20.1301 14.2761 19.6094L16.9428 16.9429C17.4635 16.4222 17.4635 15.5778 16.9428 15.0571L14.2761 12.3905C13.7554 11.8698 12.9112 11.8698 12.3905 12.3905C11.8698 12.9112 11.8698 13.7554 12.3905 14.2761L12.781 14.6665H4.66667C3.5621 14.6665 2.66667 13.7711 2.66667 12.6665C2.66667 11.562 3.5621 10.6665 4.66667 10.6665H14C16.5773 10.6665 18.6667 8.57725 18.6667 5.99992C18.6667 3.42259 16.5773 1.33325 14 1.33325H8.0003C8.0003 0.59691 7.4033 0 6.66699 0H4.00033Z" fill="white"/>
</svg>