<svg xmlns="http://www.w3.org/2000/svg" width="156" height="30" viewBox="0 0 156 30" fill="none">
  <mask id="mask0_5_15" style="mask-type:luminance" maskUnits="userSpaceOnUse" x="0" y="0" width="156" height="30">
    <path d="M156 0V30L0 30V0L156 0Z" fill="white"/>
  </mask>
  <g mask="url(#mask0_5_15)">
    <path d="M38.25 20.3669C38.25 20.8229 38.398 21.2049 38.711 21.4969C39.025 21.7869 39.411 21.9329 39.873 21.9329C40.721 21.9329 41.423 21.3869 41.994 20.2759C42.437 19.4019 42.75 18.3279 42.953 17.0169C43.137 15.7239 43.248 14.5229 43.248 13.4119V12.1919H46.678V20.3859C46.678 20.8229 46.826 21.1859 47.14 21.4779C47.453 21.7879 47.84 21.9329 48.301 21.9329C48.744 21.9329 49.131 21.7879 49.445 21.4779C49.759 21.1869 49.925 20.8229 49.925 20.3859V10.8989C49.925 10.4799 49.759 10.1159 49.445 9.80694C49.1371 9.51255 48.727 9.34908 48.301 9.35094H41.625C41.182 9.35094 40.795 9.51494 40.482 9.80694C40.15 10.1169 40.002 10.4799 40.002 10.8989V13.4119C40.002 15.2509 39.873 16.5979 39.633 17.4359C39.504 17.8909 39.246 18.4009 38.84 18.9839C38.434 19.5659 38.25 20.0209 38.25 20.3669ZM66.113 15.5599C66.113 13.6849 65.449 12.1549 64.121 10.9539C62.793 9.76994 61.188 9.16894 59.326 9.16894C57.444 9.16894 55.84 9.76994 54.512 10.9539C53.184 12.1369 52.52 13.6669 52.52 15.5599C52.52 17.4359 53.184 18.9649 54.512 20.1489C55.84 21.3319 57.444 21.9149 59.325 21.9149C61.207 21.9149 62.793 21.3329 64.121 20.1669C65.449 19.0019 66.113 17.4539 66.113 15.5599ZM62.663 15.5599C62.663 16.5439 62.35 17.3629 61.723 17.9819C61.096 18.6189 60.285 18.9289 59.325 18.9289C58.33 18.9289 57.536 18.6189 56.909 17.9819C56.282 17.3629 55.969 16.5439 55.969 15.5599C55.969 14.5769 56.282 13.7759 56.909 13.1389C57.536 12.5009 58.348 12.1739 59.325 12.1739C60.285 12.1739 61.096 12.5009 61.723 13.1389C62.35 13.7759 62.663 14.5769 62.663 15.5599ZM68.705 20.3859C68.705 20.8229 68.852 21.1859 69.165 21.4779C69.479 21.7879 69.867 21.9329 70.328 21.9329C70.77 21.9329 71.158 21.7879 71.471 21.4779C71.785 21.1869 71.951 20.8229 71.951 20.3859V12.1919H75.935C76.303 12.1919 76.635 12.0639 76.912 11.7729C77.17 11.4999 77.318 11.1729 77.318 10.7719C77.318 10.3889 77.17 10.0619 76.912 9.76994C76.7853 9.63819 76.6335 9.53321 76.4655 9.46123C76.2975 9.38926 76.1168 9.35175 75.934 9.35094H70.328C69.867 9.35094 69.479 9.51494 69.166 9.80694C68.852 10.1169 68.705 10.4799 68.705 10.8989V20.3859ZM87.607 20.3859C87.607 20.8229 87.754 21.1859 88.087 21.4779C88.4 21.7879 88.787 21.9329 89.23 21.9329C89.672 21.9329 90.041 21.7879 90.373 21.4779C90.687 21.1869 90.853 20.8229 90.853 20.3859V10.7359C90.853 10.3159 90.687 9.95194 90.373 9.64294C90.0653 9.34879 89.6557 9.18534 89.23 9.18694C88.787 9.18694 88.4 9.35094 88.086 9.64294C87.754 9.95294 87.606 10.3159 87.606 10.7349V11.2089L82.775 16.0519V10.7349C82.775 10.3159 82.609 9.95194 82.295 9.64294C81.9873 9.34879 81.5776 9.18534 81.152 9.18694C80.709 9.18694 80.322 9.35094 80.008 9.64294C79.676 9.95294 79.528 10.3159 79.528 10.7349V20.3849C79.528 20.8229 79.676 21.1869 80.008 21.4779C80.322 21.7879 80.709 21.9329 81.152 21.9329C81.594 21.9329 81.963 21.7879 82.295 21.4779C82.609 21.1869 82.775 20.8229 82.775 20.3859V19.9859L87.607 15.1229V20.3859ZM103.398 11.7729C103.674 11.4449 103.822 11.0989 103.822 10.7529C103.822 10.3159 103.674 9.95294 103.379 9.64294C103.238 9.49054 103.067 9.36954 102.877 9.28786C102.686 9.20618 102.48 9.16565 102.273 9.16894C101.756 9.16894 101.332 9.38794 101 9.82494L97.865 14.0849H97.2V10.7169C97.2 10.2979 97.034 9.93394 96.72 9.62394C96.4122 9.33015 96.0025 9.16707 95.577 9.16894C95.134 9.16894 94.747 9.33294 94.433 9.62394C94.279 9.76079 94.1563 9.92931 94.0735 10.118C93.9906 10.3066 93.9495 10.5109 93.953 10.7169V20.3669C93.953 20.8039 94.101 21.1689 94.433 21.4599C94.747 21.7699 95.134 21.9149 95.577 21.9149C96.019 21.9149 96.388 21.7699 96.72 21.4599C97.034 21.1689 97.2 20.8039 97.2 20.3669V16.9269H97.882L101.073 21.2409C101.405 21.7149 101.866 21.9329 102.438 21.9329C102.88 21.9329 103.267 21.7879 103.563 21.4779C103.858 21.1869 104.024 20.8039 104.024 20.3489C104.024 19.9669 103.876 19.5839 103.581 19.2199L100.538 15.3239L103.397 11.7739L103.398 11.7729ZM106.235 21.2049C106.235 21.4239 106.291 21.5869 106.438 21.7329C106.586 21.8789 106.752 21.9329 106.973 21.9329C107.213 21.9329 107.434 21.8429 107.637 21.6229C107.821 21.4049 108.061 21.0049 108.356 20.4029C109.149 18.6929 109.555 16.0329 109.555 12.4099V10.6439H115.697V21.2239C115.697 21.4239 115.77 21.5869 115.918 21.7339C116.065 21.8789 116.231 21.9339 116.434 21.9339C116.529 21.9383 116.625 21.9227 116.714 21.8883C116.803 21.8539 116.883 21.8013 116.951 21.7339C117.021 21.669 117.077 21.5901 117.115 21.5023C117.153 21.4145 117.173 21.3197 117.172 21.2239V10.0609C117.171 9.96817 117.151 9.87662 117.113 9.79199C117.075 9.70735 117.02 9.63143 116.951 9.56894C116.884 9.49892 116.804 9.44335 116.715 9.40567C116.626 9.368 116.531 9.34903 116.434 9.34994H108.817C108.718 9.34726 108.619 9.36534 108.526 9.40305C108.434 9.44076 108.351 9.49726 108.282 9.56894C108.216 9.6323 108.164 9.70882 108.129 9.79355C108.094 9.87829 108.077 9.96938 108.08 10.0609V12.4089C108.08 15.4689 107.803 17.7439 107.25 19.2189C107.102 19.6019 106.881 19.9839 106.623 20.3849C106.364 20.7849 106.235 21.0589 106.235 21.2049ZM124.965 11.0629L127.565 17.5089H122.364L124.965 11.0629ZM129.041 21.4049C129.17 21.7689 129.41 21.9329 129.778 21.9329C130 21.9329 130.166 21.8789 130.313 21.7509C130.442 21.6419 130.516 21.4779 130.516 21.2599C130.512 21.1273 130.48 20.997 130.424 20.8769L126.016 9.93394C125.813 9.44194 125.463 9.18694 124.983 9.18694C124.504 9.18694 124.153 9.44194 123.969 9.93394L119.542 20.8769C119.469 21.0589 119.432 21.1869 119.432 21.2599C119.432 21.4599 119.487 21.6239 119.616 21.7509C119.745 21.8789 119.911 21.9329 120.133 21.9329C120.483 21.9329 120.723 21.7699 120.87 21.4049L121.995 18.6919H127.953L129.041 21.4049ZM141.954 21.2229C141.954 21.4229 142.028 21.5869 142.176 21.7329C142.323 21.8789 142.489 21.9329 142.692 21.9329C142.787 21.9358 142.882 21.9196 142.97 21.8853C143.059 21.8509 143.14 21.7991 143.208 21.7329C143.279 21.6682 143.335 21.5894 143.373 21.5015C143.411 21.4137 143.431 21.3188 143.43 21.2229V9.89794C143.429 9.80506 143.409 9.71342 143.37 9.62875C143.332 9.54408 143.277 9.46823 143.208 9.40594C143.142 9.33586 143.062 9.28022 142.973 9.24254C142.884 9.20485 142.788 9.18592 142.692 9.18694C142.596 9.18592 142.5 9.20485 142.411 9.24254C142.322 9.28022 142.242 9.33586 142.176 9.40594C142.107 9.46823 142.052 9.54408 142.014 9.62875C141.975 9.71342 141.955 9.80506 141.954 9.89794V10.7899L134.264 18.6009V9.89794C134.263 9.80506 134.243 9.71342 134.204 9.62875C134.166 9.54408 134.111 9.46823 134.042 9.40594C133.975 9.33733 133.894 9.28267 133.806 9.24509C133.717 9.20752 133.622 9.18776 133.526 9.18694C133.429 9.18603 133.334 9.205 133.245 9.24267C133.156 9.28035 133.076 9.33592 133.009 9.40594C132.94 9.46843 132.885 9.54435 132.847 9.62898C132.809 9.71362 132.789 9.80517 132.788 9.89794V21.2229C132.788 21.4229 132.862 21.5869 133.009 21.7329C133.157 21.8789 133.323 21.9329 133.526 21.9329C133.621 21.9357 133.716 21.9195 133.804 21.8851C133.893 21.8508 133.974 21.799 134.042 21.7329C134.113 21.6682 134.169 21.5894 134.207 21.5015C134.245 21.4137 134.265 21.3188 134.264 21.2229V20.4229L141.954 12.5929V21.2229ZM138.21 6.14694C137.922 6.1527 137.639 6.06999 137.399 5.90994C137.178 5.7831 136.994 5.60119 136.864 5.38194C136.735 5.19994 136.606 5.01794 136.458 4.85394C136.311 4.70794 136.182 4.61694 136.053 4.61694C135.916 4.61799 135.785 4.67005 135.684 4.76294C135.635 4.80188 135.596 4.85196 135.57 4.90901C135.545 4.96606 135.533 5.02844 135.536 5.09094C135.536 5.30894 135.721 5.63694 136.089 6.07394C136.661 6.78394 137.362 7.12994 138.21 7.12994C139.04 7.12994 139.741 6.78394 140.331 6.07394C140.7 5.63694 140.885 5.30894 140.885 5.09094C140.884 5.02718 140.869 4.9644 140.84 4.90751C140.812 4.85061 140.77 4.80114 140.719 4.76294C140.623 4.67373 140.499 4.6219 140.368 4.61694C140.221 4.61694 140.092 4.70794 139.944 4.85394C139.799 5.01731 139.669 5.1941 139.557 5.38194C139.415 5.59776 139.225 5.77834 139.003 5.90994C138.77 6.0699 138.493 6.15278 138.21 6.14694ZM155.65 10.3899C155.797 10.2249 155.871 10.0609 155.871 9.89794C155.871 9.69794 155.797 9.53294 155.668 9.38794C155.605 9.32448 155.53 9.27412 155.448 9.23979C155.366 9.20546 155.277 9.18783 155.188 9.18794C154.949 9.18794 154.746 9.29694 154.561 9.49694L149.748 14.8869H148.401V9.87894C148.4 9.7863 148.38 9.69487 148.342 9.61038C148.304 9.52589 148.249 9.45016 148.18 9.38794C148.039 9.2588 147.855 9.18739 147.664 9.18794C147.467 9.18386 147.275 9.25542 147.129 9.38794C147.063 9.45099 147.01 9.52728 146.975 9.61186C146.94 9.69645 146.924 9.78744 146.926 9.87894V21.2229C146.926 21.4229 147 21.5869 147.147 21.7329C147.295 21.8789 147.461 21.9329 147.664 21.9329C147.759 21.9357 147.854 21.9195 147.942 21.8851C148.031 21.8508 148.112 21.799 148.18 21.7329C148.251 21.6682 148.307 21.5893 148.345 21.5014C148.383 21.4136 148.402 21.3187 148.401 21.2229V16.1799H149.785L154.598 21.5509C154.82 21.8059 155.059 21.9329 155.299 21.9329C155.502 21.9329 155.668 21.8789 155.797 21.7329C155.863 21.6692 155.915 21.5926 155.95 21.508C155.984 21.4234 156.002 21.3325 156 21.2409C155.994 21.0471 155.922 20.8611 155.797 20.7129L150.983 15.4509L155.65 10.3889V10.3899Z" fill="#39414B"/>
    <path fill-rule="evenodd" clip-rule="evenodd" d="M30 15C30 23.284 23.284 30 15 30C6.716 30 0 23.284 0 15C0 6.716 6.716 0 15 0C23.284 0 30 6.716 30 15ZM16.9 8.397L25.472 12.613C26.544 13.132 26.544 13.996 25.472 14.514L21.36 16.52V20.564C21.36 22.084 18.492 23.329 15.001 23.329C11.511 23.329 8.641 22.084 8.641 20.564V16.52L4.529 14.48C3.492 13.962 3.492 13.133 4.529 12.614L13.1 8.398C14.137 7.879 15.865 7.879 16.902 8.398L16.9 8.397ZM10.576 19.975C10.576 20.943 12.581 21.703 15 21.703C17.42 21.703 19.39 20.908 19.424 19.975C19.424 19.007 17.419 18.247 15 18.247C12.546 18.247 10.576 19.007 10.576 19.975Z" fill="#5CBB73"/>
  </g>
</svg>