<svg xmlns="http://www.w3.org/2000/svg" width="36" height="36" viewBox="0 0 36 36" fill="none"><script xmlns=""/>
<g clip-path="url(#clip0)">
<path d="M16.0077 7.10785C17.2468 6.41948 18.7534 6.41949 19.9925 7.10786L27.8899 11.4953C29.1923 12.2189 30.0001 13.5917 30.0001 15.0816V23.587C30.0001 25.0769 29.1923 26.4497 27.8899 27.1733L19.9924 31.5608C18.7534 32.2491 17.2467 32.2491 16.0077 31.5608L8.11024 27.1733C6.80782 26.4497 6.00006 25.0769 6.00006 23.587V15.0816C6.00006 13.5917 6.80782 12.2189 8.11025 11.4953L16.0077 7.10785Z" fill="#4DD9AA" stroke="#4DD9AA" stroke-width="2.66667"/>
<path d="M16.0077 5.10688C17.2468 4.41851 18.7534 4.41851 19.9925 5.10688L27.8899 9.49434C29.1923 10.2179 30.0001 11.5907 30.0001 13.0806V21.586C30.0001 23.076 29.1923 24.4488 27.8899 25.1723L19.9924 29.5598C18.7534 30.2482 17.2467 30.2482 16.0077 29.5598L8.11024 25.1723C6.80782 24.4488 6.00006 23.076 6.00006 21.586V13.0806C6.00006 11.5907 6.80782 10.2179 8.11025 9.49434L16.0077 5.10688Z" fill="#7D51F0" stroke="#4DD9AA" stroke-width="2.66667"/>
</g>
<defs>
<clipPath id="clip0">
<rect width="26.6667" height="31.1111" fill="white" transform="translate(4.66669 2.44629)"/>
</clipPath>
</defs>
<script xmlns=""/></svg>