<svg xmlns="http://www.w3.org/2000/svg" width="24" height="24" fill="none"><path d="M20.889 19.778a3.333 3.333 0 0 0-3.334-3.333H14.89a3.333 3.333 0 0 0-3.334 3.333c0 .368.299.667.667.667h8a.667.667 0 0 0 .667-.667Z" fill="#FFDA72"/><path d="M21.778 14.222a2.667 2.667 0 0 1-2.666 2.667h-5.334a4.444 4.444 0 0 1-4.444-4.444V9.333a6.222 6.222 0 0 1 12.444 0v4.89Z" fill="#F9763C"/><path d="M12.444 8.889a2.667 2.667 0 0 1 2.667-2.667h5.778v7.111a4 4 0 0 1-4 4h-.445a4 4 0 0 1-4-4V8.89Z" fill="#FFBB86"/><path d="M18.223 14.222h-2.667a1.333 1.333 0 1 0 2.667 0Z" fill="white"/><path d="M18.223 14.222v0c0 .737-.597 1.334-1.334 1.334v0a1.333 1.333 0 0 1-1.333-1.334v0" stroke="#F8814D" stroke-width=".889" stroke-linecap="round"/><path d="M9.807 6.819c-.12-.426.145-.864.592-.978l6.67-1.704c2.232-.57 4.527.693 5.125 2.822.12.426-.145.863-.592.978l-6.67 1.704c-2.232.57-4.527-.693-5.125-2.822Z" fill="#F9763C"/><path d="M21.75 7.237c.116.384-.14.779-.572.881l-6.446 1.536c-2.158.514-4.375-.624-4.954-2.543" stroke="#FF986B" stroke-width=".889" stroke-linecap="round"/><path d="M11.556 19.778a3.333 3.333 0 0 0-3.334-3.333H5.556a3.333 3.333 0 0 0-3.334 3.333c0 .368.299.667.667.667h8a.667.667 0 0 0 .667-.667Z" fill="#6FB8F0"/><path d="M10.667 9.333A2.667 2.667 0 0 0 8 6.667H4c-.982 0-1.777.796-1.777 1.777v4.89a4 4 0 0 0 4 4h.444a4 4 0 0 0 4-4v-4Z" fill="#FFBB86"/><path d="M5.334 11.556c-.13-.26-.479-.445-.889-.445-.41 0-.76.186-.889.444m5.334.001c-.13-.26-.479-.445-.89-.445-.41 0-.759.186-.888.444" stroke="#C4814F" stroke-width=".889" stroke-linecap="round"/><path d="M4.445 14.222h3.556c0 .737-.597 1.334-1.333 1.334h-.89a1.333 1.333 0 0 1-1.333-1.334Z" fill="white"/><path d="M4.445 14.222v0c0 .737.597 1.334 1.334 1.334h.889c.736 0 1.333-.597 1.333-1.334v0" stroke="#C4814F" stroke-width=".889" stroke-linecap="round"/><path fill-rule="evenodd" clip-rule="evenodd" d="M1.78 3.15v3.072c0 .976.786 1.769 1.76 1.778h2.683a4.444 4.444 0 0 1 4.445 4.444v1.33a.812.812 0 0 0 .89-.808V9.262a4.444 4.444 0 0 0-4.445-4.444H3.486c-.93 0-1.686-.743-1.707-1.668Z" fill="#95683D"/><path d="M16.444 11.556c-.13-.26-.478-.445-.889-.445-.41 0-.76.186-.888.445m5.333 0c-.13-.26-.479-.445-.889-.445-.41 0-.76.186-.889.445" stroke="#C4814F" stroke-width=".889" stroke-linecap="round"/><rect x="10.223" y="11.111" width="1.333" height="2.667" rx=".667" fill="#FFBB86"/></svg>