<svg xmlns="http://www.w3.org/2000/svg" width="102" height="102" viewBox="0 0 102 102" fill="none"><script xmlns=""/><g clip-path="url(#clip0_1684_185563)"><g clip-path="url(#clip1_1684_185563)"><path fill-rule="evenodd" clip-rule="evenodd" d="M33.63 22.42a1.245 1.245 0 00-1.718-.415 1.263 1.263 0 00-.418 1.728L39.29 36.59c-.669.256-1.305.783-1.765 1.534-.974 1.587-.794 3.572.4 4.433 1.196.861 2.954.273 3.927-1.314.605-.985.765-2.124.514-3.052.252-.393.275-.911.017-1.336L33.63 22.421z" fill="#E5FBFF"/><path d="M92.508 46.118a6.728 6.728 0 00-.497-5.785l-1.309-2.226a16.04 16.04 0 00-4.895-5.195 15.94 15.94 0 00-5.356-2.308l-41.294-9.35a6.634 6.634 0 00-7.678 4.134L20.073 55.572a6.733 6.733 0 003.876 8.652l47.645 18.332a6.635 6.635 0 008.601-3.852l12.313-32.586z" fill="#24529A"/><path d="M39.14 21.228l41.261 9.396c2.099.466 4.09 1.14 5.83 2.412a15.683 15.683 0 014.261 4.711l1.52 2.587a6.728 6.728 0 01.498 5.785L87.612 59.08l-3.42-4.515-55.286-22.364 2.583-6.836a6.634 6.634 0 017.652-4.138z" fill="#803626"/><path d="M85.926 47.227a5.723 5.723 0 00-3.294-7.355L34.987 21.54a5.64 5.64 0 00-7.311 3.274L18.45 49.231a5.723 5.723 0 003.294 7.355l47.645 18.332a5.64 5.64 0 007.31-3.274l9.227-24.417z" fill="#24529A" stroke="#5C85C6" stroke-width="2.005"/><path d="M79.835 54.638l-16.05-6.176-5.743 15.198a3.366 3.366 0 001.937 4.326l9.813 3.776a3.318 3.318 0 004.3-1.926l5.743-15.198z" fill="#F1EFEF"/><path d="M81.179 51.08l-16.05-6.175-5.744 15.197a3.366 3.366 0 001.938 4.327l9.812 3.775a3.318 3.318 0 004.3-1.926L81.18 51.08z" fill="#fff"/><path d="M61.608 47.623l-16.05-6.175-5.743 15.197a3.366 3.366 0 001.938 4.327l9.812 3.775a3.318 3.318 0 004.3-1.926l5.743-15.198z" fill="#F1EFEF"/><path d="M62.951 44.068l-16.05-6.176-5.743 15.198a3.366 3.366 0 001.938 4.327l9.812 3.775a3.318 3.318 0 004.3-1.926l5.743-15.198z" fill="#fff"/><path d="M43.38 40.611l-16.05-6.176-5.764 15.254a3.366 3.366 0 001.882 4.304l9.37 3.801a3.318 3.318 0 004.327-1.828l6.236-15.355z" fill="#F1EFEF"/><path d="M44.407 36.932l-15.733-6.054-5.743 15.198a3.366 3.366 0 001.937 4.326l9.496 3.654a3.318 3.318 0 004.3-1.926l5.743-15.198z" fill="#fff"/><path d="M72.636 41.53l-13.058-5.025-5.743 15.198a3.366 3.366 0 001.938 4.326l6.82 2.624a3.318 3.318 0 004.3-1.926l5.743-15.198z" fill="#184283"/><path d="M54.408 34.515L41.35 29.49l-5.743 15.198a3.366 3.366 0 001.938 4.326l6.82 2.625a3.318 3.318 0 004.3-1.926l5.743-15.198z" fill="#184283"/><path d="M73.772 38.52l-13.059-5.024-5.742 15.198a3.366 3.366 0 001.937 4.327l6.82 2.624a3.318 3.318 0 004.3-1.926l5.743-15.198z" fill="#3462A9"/><path d="M55.546 31.509l-13.058-5.025-5.743 15.198a3.366 3.366 0 001.938 4.326l6.82 2.625a3.318 3.318 0 004.3-1.927l5.743-15.198z" fill="#3462A9"/><path d="M88.412 43.483a6.733 6.733 0 00-3.876-8.653L36.891 16.498a6.636 6.636 0 00-8.6 3.852L24.038 31.6 84.16 54.734l4.252-11.251z" fill="#E38109"/><path d="M88.407 40.664a5.723 5.723 0 00-3.294-7.355L37.467 14.977a5.64 5.64 0 00-7.31 3.274l-3.07 8.125 58.25 22.413 3.07-8.125z" fill="#FFDE81" stroke="#F79824" stroke-width="2.005"/><path fill="#002051" fill-opacity=".2" d="M82.527 54.106L25.67 32.23l-.93 2.46 56.857 21.878z"/><path fill="#FFF0A2" d="M85.595 45.287L29.229 23.599l-.844 2.235L84.75 47.52z"/><g opacity=".3" filter="url(#filter0_d_1684_185563)"><path d="M11.034 46.393a4.055 4.055 0 011.502-4.872l11.19-7.894a4.055 4.055 0 016.027 1.859l.773 1.931a3.762 3.762 0 01-1.393 4.52l-3 2.017-7.748 5.58a2.027 2.027 0 00-.751 2.436l5.168 10.495-5.64-2.211-3.579-7.492-1.13-2.824-1.419-3.545z" fill="#B96D10"/></g><path fill-rule="evenodd" clip-rule="evenodd" d="M23.76 33.769l.007-.004c2.477-1.666 5.86-.623 6.97 2.15l.773 1.93a4.396 4.396 0 01-1.63 5.283l-2.99 2.01-7.748 5.58-.009.006a1.393 1.393 0 00-.518 1.667l6.998 16.333.003.007c1.21 3.02-.777 6.454-4.116 7.79-3.34 1.337-7.147.222-8.356-2.798-1.209-3.02.778-6.454 4.117-7.79.732-.294 1.08-1.033.876-1.56l-4.745-10.701-2.553-6.38a4.69 4.69 0 011.732-5.63l11.19-7.893z" fill="#B54040"/><path fill-rule="evenodd" clip-rule="evenodd" d="M20.581 31.257l.006-.004c2.478-1.666 5.86-.623 6.97 2.149l.773 1.931a4.397 4.397 0 01-1.629 5.283l-2.99 2.01-7.749 5.58-.008.006a1.393 1.393 0 00-.52 1.667l7 16.333.003.007c1.208 3.02-.778 6.454-4.117 7.79-3.339 1.337-7.146.222-8.355-2.798-1.21-3.02.777-6.455 4.116-7.791.733-.293 1.08-1.032.877-1.56l-4.745-10.7-2.553-6.38a4.69 4.69 0 011.73-5.63l11.191-7.893z" fill="#F86963"/><rect x="9.123" y="41.317" width="17.851" height="3.473" rx="1.737" transform="rotate(-34.9941 9.12305 41.3174)" fill="#FFB393"/><ellipse cx="13.896" cy="68.075" rx="2.782" ry="2.318" transform="rotate(-43.8237 13.8955 68.0746)" fill="#FFB393"/><g filter="url(#filter1_d_1684_185563)"><path fill-rule="evenodd" clip-rule="evenodd" d="M37.08 64.14a2.262 2.262 0 012.086-1.933l7.607-.689a2.262 2.262 0 012.392 2.58L49 65.246a2.099 2.099 0 01-1.934 1.794l-2.012.137-5.3.532c-.531.036-.966.44-1.042.967l-1.178 9.842c-.223 1.546-1.907 2.582-3.762 2.314-1.855-.268-3.178-1.737-2.954-3.283.223-1.546 1.907-2.582 3.761-2.314.567.082 1.179-.247 1.26-.814l.696-6.493.546-3.787z" fill="#FFC75D"/></g><path fill-rule="evenodd" clip-rule="evenodd" d="M47.015 69.85l1.998-.135a2.86 2.86 0 002.637-2.445l.166-1.149a3.023 3.023 0 00-3.197-3.448l-.009.001-7.608.69a3.023 3.023 0 00-2.778 2.583l-.548 3.8-.695 6.487c-.005.023-.022.06-.09.102a.48.48 0 01-.307.06c-2.136-.308-4.323.875-4.624 2.96-.3 2.084 1.463 3.836 3.6 4.144 2.136.309 4.323-.874 4.624-2.958v-.01l1.179-9.839a.37.37 0 01.34-.31h.012l5.3-.532z" fill="#C2762F"/><path fill-rule="evenodd" clip-rule="evenodd" d="M45.117 67.936l1.999-.136a2.86 2.86 0 002.637-2.445l.166-1.149a3.023 3.023 0 00-3.198-3.448h-.008l-7.608.69a3.023 3.023 0 00-2.779 2.584l-.548 3.8-.694 6.487c-.005.023-.023.06-.09.102a.479.479 0 01-.307.06c-2.136-.308-4.323.875-4.624 2.96-.3 2.084 1.463 3.836 3.6 4.144 2.135.309 4.322-.874 4.623-2.959l.002-.008 1.178-9.84a.37.37 0 01.34-.31h.012l5.3-.532z" fill="#FFC75D"/><rect x="38.401" y="62.822" width="9.957" height="1.937" rx=".969" transform="rotate(-4.97021 38.4014 62.822)" fill="#FFF0A0"/><ellipse cx="33.238" cy="77.08" rx="1.863" ry="1.552" transform="rotate(-13.7998 33.2381 77.0801)" fill="#FFF0A0"/></g></g><defs><clipPath id="clip0_1684_185563"><path fill="#fff" d="M0 0h102v102H0z"/></clipPath><clipPath id="clip1_1684_185563"><path fill="#fff" transform="translate(-7.5 -16)" d="M0 0h118v118H0z"/></clipPath><filter id="filter0_d_1684_185563" x="10.743" y="32.936" width="23.225" height="32.067" filterUnits="userSpaceOnUse" color-interpolation-filters="sRGB"><feFlood flood-opacity="0" result="BackgroundImageFix"/><feColorMatrix in="SourceAlpha" type="matrix" values="0 0 0 0 0 0 0 0 0 0 0 0 0 0 0 0 0 0 127 0" result="hardAlpha"/><feOffset dx="3.172" dy="2.538"/><feComposite in2="hardAlpha" operator="out"/><feColorMatrix type="matrix" values="0 0 0 0 0.425 0 0 0 0 0.382316 0 0 0 0 0.330083 0 0 0 1 0"/><feBlend mode="normal" in2="BackgroundImageFix" result="effect1_dropShadow_1684_185563"/><feBlend mode="normal" in="SourceGraphic" in2="effect1_dropShadow_1684_185563" result="shape"/></filter><filter id="filter1_d_1684_185563" x="30.792" y="61.513" width="20.3" height="21.265" filterUnits="userSpaceOnUse" color-interpolation-filters="sRGB"><feFlood flood-opacity="0" result="BackgroundImageFix"/><feColorMatrix in="SourceAlpha" type="matrix" values="0 0 0 0 0 0 0 0 0 0 0 0 0 0 0 0 0 0 127 0" result="hardAlpha"/><feOffset dx="1.903" dy="1.903"/><feComposite in2="hardAlpha" operator="out"/><feColorMatrix type="matrix" values="0 0 0 0 0.7625 0 0 0 0 0.462372 0 0 0 0 0.18533 0 0 0 1 0"/><feBlend mode="normal" in2="BackgroundImageFix" result="effect1_dropShadow_1684_185563"/><feBlend mode="normal" in="SourceGraphic" in2="effect1_dropShadow_1684_185563" result="shape"/></filter></defs><script xmlns=""/></svg>