<svg xmlns="http://www.w3.org/2000/svg" width="60" height="60" fill="none"><rect x="20" y="10" width="14.444" height="40" rx="2.222" fill="#DBA232"/><rect x="37.778" y="33.332" width="14.444" height="16.667" rx="2.222" fill="#C36C47"/><rect x="42.222" y="33.332" width="13.333" height="16.667" rx="2.222" fill="#FF8F5F"/><rect x="24.445" y="10" width="15.556" height="40" rx="2.222" fill="#FFDF60"/><rect x="4.444" y="24.445" width="14.444" height="25.556" rx="2.222" fill="#6D9FB8"/><rect x="8.889" y="24.445" width="13.333" height="25.556" rx="2.222" fill="#CFEDFC"/><path d="M33.743 23.326v-6.544c0-.346-.1-.65-.274-.88-.188-.232-.462-.347-.823-.347-.26 0-.52.043-.78.13l-2.6.838a.998.998 0 0 0-.52.39 1.081 1.081 0 0 0-.203.65c0 .346.101.62.318.808.217.203.477.29.78.29.101 0 .202-.015.318-.044l1.242-.405v5.114h-1.56c-.289 0-.549.115-.751.332a1.071 1.071 0 0 0-.318.766c0 .317.101.577.304.78.202.216.462.317.765.317h5.503a.995.995 0 0 0 .752-.317c.202-.203.303-.463.303-.78 0-.29-.116-.535-.318-.766a.978.978 0 0 0-.737-.332h-1.4Z" fill="#DBA232"/><path d="M14.952 36.662c0-.361.145-.665.448-.896.173-.144.592-.375 1.257-.722.664-.347 1.17-.693 1.53-1.054.607-.607.91-1.344.91-2.225 0-.751-.245-1.372-.722-1.892-.606-.65-1.43-.982-2.47-.982-.895 0-1.66.159-2.31.447-.838.376-1.257.853-1.257 1.401 0 .347.1.607.303.81.202.202.477.288.794.288a.948.948 0 0 0 .333-.058.982.982 0 0 0 .274-.115l.29-.173c.13-.073.23-.13.288-.174.347-.202.708-.317 1.069-.317.346 0 .592.072.765.216.174.16.26.361.26.621 0 .318-.115.592-.346.824-.231.216-.694.505-1.401.866-.708.361-1.243.708-1.59 1.055-.418.404-.722.837-.895 1.329-.173.49-.26 1.097-.26 1.805 0 .361.087.636.29.838.201.202.447.303.765.303h4.867a.994.994 0 0 0 .752-.318c.202-.202.317-.462.317-.78 0-.288-.115-.548-.318-.765a1.008 1.008 0 0 0-.75-.332h-3.193Z" fill="#6D9FB8"/><path d="M51.954 44.006c0-1.2-.577-2.037-1.718-2.514.895-.433 1.343-1.17 1.343-2.238 0-.723-.26-1.344-.766-1.835-.52-.491-1.227-.751-2.152-.751a4.84 4.84 0 0 0-1.878.361 3.568 3.568 0 0 0-.534.274c-.13.087-.26.217-.376.39a.965.965 0 0 0-.188.593c0 .303.102.563.318.765.203.203.462.304.766.304.188 0 .462-.101.838-.304.288-.173.577-.274.88-.274.26 0 .463.087.607.245a.94.94 0 0 1 .203.578c0 .405-.174.694-.491.867-.275.144-.65.202-1.113.202-.317 0-.549.101-.722.289a1 1 0 0 0-.26.679c0 .361.116.621.347.765.23.16.505.231.823.231.535 0 .925.073 1.17.203.347.216.535.534.535.939 0 .693-.405 1.025-1.2 1.025-.288 0-.563-.058-.823-.202a1.3 1.3 0 0 1-.26-.145 1.484 1.484 0 0 0-.332-.173 1.23 1.23 0 0 0-.332-.058 1.06 1.06 0 0 0-.766.318 1.048 1.048 0 0 0-.317.766c0 .592.418 1.01 1.256 1.256.462.145 1.055.217 1.762.217 1.07 0 1.893-.246 2.485-.766.592-.52.895-1.184.895-2.007Z" fill="#C36C47"/></svg>