<svg xmlns="http://www.w3.org/2000/svg" width="102" height="102" viewBox="0 0 102 102" fill="none"><script xmlns=""/><g clip-path="url(#clip0_914_160454)"><g clip-path="url(#clip1_914_160454)"><path d="M79.354 54.9l1.14-.125a3.68 3.68 0 003.257-4.058l-.033-.303a3.68 3.68 0 00-4.058-3.257l-1.14.125.834 7.618z" fill="#F65539"/><path d="M78.495 58.08l.38-.043a2.108 2.108 0 001.865-2.325l-1.043-9.52a2.108 2.108 0 00-2.325-1.866l-.38.042a2.108 2.108 0 00-1.866 2.325l1.043 9.52a2.109 2.109 0 002.326 1.866z" fill="#FFB762"/><path fill-rule="evenodd" clip-rule="evenodd" d="M76.953 128.07c1.524-13.972 3.141-32.163 3.41-49.48l-53.55-1.24c-.232 14.901-1.682 31.62-3.131 44.911a726.992 726.992 0 01-1.94 16.129 541.513 541.513 0 01-.83 6.017l-.009.066v.002c-2.169 14.637 7.938 28.261 22.575 30.431 14.637 2.17 28.263-7.937 30.433-22.575l-26.504-3.929c26.504 3.929 26.504 3.926 26.504 3.926l.023-.154.055-.376.196-1.375c.166-1.183.401-2.886.683-5.021a780.022 780.022 0 002.085-17.332z" fill="#FF6E6E"/><path d="M75.45 90.164c3.88 8.573 6.967 13.277 14.32 21.326" stroke="#FF6E6E" stroke-width="15.166" stroke-miterlimit="10" stroke-linecap="round"/><rect width="5.055" height="14.155" rx="2.528" transform="matrix(-0.995387 0.0959442 0.0959442 0.995387 27.0691 49.123)" fill="#FFB762"/><path fill-rule="evenodd" clip-rule="evenodd" d="M24.11 60.555h-.001a4.044 4.044 0 01-.776-8.05l.777 8.05z" fill="#FF6565"/><path d="M53.487 81.01c-1.301 37.028-3.138 57.524-9.543 93.291" stroke="#CC4040" stroke-width="3.033"/><path fill-rule="evenodd" clip-rule="evenodd" d="M23.113 43.654c-3.052-14.48 6.213-28.69 20.692-31.743 14.48-3.051 28.692 6.213 31.743 20.693 3.476 16.492 4.431 23.964 4.753 43.937l.065 2.174-1.888 1.273a45.77 45.77 0 01-51.71-.374l-.07-4.414c-.294-14.985-1.022-19.384-3.585-31.546z" fill="#BEDCE4"/><path d="M56.28 93.989l-1.637-5.992c-.336-1.232-1.951-1.522-2.695-.484l-3.573 4.984a1.517 1.517 0 00.944 2.373l5.21 1.007a1.517 1.517 0 001.751-1.888z" fill="#ECFBFF"/><path d="M31.27 92.433s-6.4 14.159-13.273 21.415" stroke="#FF6E6E" stroke-width="15.166" stroke-miterlimit="10" stroke-linecap="round"/><rect x="30.287" y="93.439" width="13.65" height="18.705" rx="4.044" transform="rotate(0.362576 30.2874 93.4395)" fill="#3B5275"/><rect x="32.798" y="95.982" width="5.055" height="3.539" rx="1.769" transform="rotate(0.362576 32.7976 95.9824)" fill="#F4F08F"/><rect x="32.767" y="101.036" width="8.594" height="3.539" rx="1.769" transform="rotate(0.362576 32.7668 101.036)" fill="#8369E9"/><path d="M18.223 24.227c4.526.993 7.15 1.992 11.986 4.767" stroke="#BEDCE4" stroke-width="4.044" stroke-miterlimit="10"/><rect width="13.144" height="13.144" rx="6.572" transform="matrix(-0.906454 0.422303 0.422303 0.906454 18.491 15.0784)" fill="#BEDCE4"/><rect width="7.078" height="7.078" rx="3.539" transform="matrix(-0.906454 0.422303 0.422303 0.906454 17.022 19.1121)" fill="#FF6565"/><path d="M72.49 15.467c-3.41 2.032-4.943 3.983-7.545 7.75" stroke="#BEDCE4" stroke-width="4.044" stroke-miterlimit="10"/><rect x="69.168" y="7.437" width="13.144" height="13.144" rx="6.572" transform="rotate(-0.765119 69.168 7.43677)" fill="#BEDCE4"/><rect x="72.241" y="10.431" width="7.078" height="7.078" rx="3.539" transform="rotate(-0.765119 72.2412 10.4314)" fill="#FF6565"/><path d="M45.67 51.696c7.314-1.883 11.31-2.343 18.205-1.858" stroke="#3C4C87" stroke-width="21.233" stroke-linecap="round"/><rect x="58.527" y="49.818" width="6.871" height="4.559" rx="2.28" transform="rotate(-7.37913 58.5266 49.8176)" fill="#6EC1FF"/><rect x="43.779" y="49.098" width="6.871" height="6.871" rx="3.435" transform="rotate(-3.12725 43.7786 49.0979)" fill="#6EC1FF"/><path d="M50.118 15.51c-7.558-.11-14.341 3.45-18.765 9.08m-2.416 3.721a24.903 24.903 0 00-2.36 6.574" stroke="#ECFBFF" stroke-width="3.033" stroke-miterlimit="10" stroke-linecap="round"/><path d="M65.13 67.35a2.25 2.25 0 00-2.503-2.261l-13.714 1.543a1.952 1.952 0 00-1.734 1.918c-.05 4.36 3.731 7.778 8.064 7.29l2.461-.276a8.36 8.36 0 007.425-8.213z" fill="#7BADBB"/><path d="M61.465 65.805a.588.588 0 00-.651-.52l-9.272 1.044a.589.589 0 00-.52.65 2.354 2.354 0 002.603 2.076l5.764-.649a2.354 2.354 0 002.075-2.602z" fill="#ECFBFF"/></g></g><defs><clipPath id="clip0_914_160454"><path fill="#fff" d="M0 0h102v102H0z"/></clipPath><clipPath id="clip1_914_160454"><path fill="#fff" transform="matrix(-0.997327 -0.0730652 -0.0730652 0.997327 142.133 2.44141)" d="M0 0h156.597v122.563H0z"/></clipPath></defs><script xmlns=""/></svg>