<svg xmlns="http://www.w3.org/2000/svg" width="66" height="66"><path style="stroke:none;fill-rule:nonzero;fill:#ff7152;fill-opacity:1" d="M12.223 19.555h23.222a6.112 6.112 0 0 1 6.11 6.113v23.223A6.108 6.108 0 0 1 35.445 55H12.223a6.112 6.112 0 0 1-6.114-6.11V25.669a6.115 6.115 0 0 1 6.114-6.113Zm0 0"/><path style="stroke:none;fill-rule:nonzero;fill:#be6451;fill-opacity:1" d="M15.89 19.555h23.22a6.115 6.115 0 0 1 6.113 6.113v23.223A6.112 6.112 0 0 1 39.109 55H15.891a6.112 6.112 0 0 1-6.114-6.11V25.669a6.115 6.115 0 0 1 6.114-6.113Zm0 0"/><path style="stroke:none;fill-rule:nonzero;fill:#ffdf60;fill-opacity:1" d="M17.11 13.445h28.113a6.108 6.108 0 0 1 6.109 6.11V48.89a6.108 6.108 0 0 1-6.11 6.11H17.11A6.108 6.108 0 0 1 11 48.89V19.556a6.108 6.108 0 0 1 6.11-6.11Zm0 0"/><path style="stroke:none;fill-rule:nonzero;fill:#d48e39;fill-opacity:1" d="M20.777 13.445h28.114A6.108 6.108 0 0 1 55 19.555V48.89A6.108 6.108 0 0 1 48.89 55H20.778a6.108 6.108 0 0 1-6.109-6.11V19.556a6.108 6.108 0 0 1 6.11-6.11Zm0 0"/><path style="stroke:none;fill-rule:nonzero;fill:#33cfff;fill-opacity:1" d="M23.223 9.777h23.222a6.112 6.112 0 0 1 6.11 6.114v33A6.108 6.108 0 0 1 46.445 55H23.223a6.112 6.112 0 0 1-6.114-6.11v-33a6.115 6.115 0 0 1 6.114-6.113Zm0 0"/><path style="stroke:none;fill-rule:nonzero;fill:#33a9ff;fill-opacity:1" d="M26.89 9.777h24.442a6.115 6.115 0 0 1 6.113 6.114v33A6.112 6.112 0 0 1 51.332 55H26.891a6.112 6.112 0 0 1-6.114-6.11v-33a6.115 6.115 0 0 1 6.114-6.113Zm0 0"/><path style="stroke:none;fill-rule:nonzero;fill:#add6e2;fill-opacity:1" d="M28.367 11.164a1.358 1.358 0 0 0-1.91.2 1.358 1.358 0 0 0 .195 1.91Zm3.504 6.348a1.358 1.358 0 1 0 1.711-2.11Zm-5.219-4.239 5.22 4.239 1.71-2.11-5.215-4.238Zm0 0"/><path style="stroke:none;fill-rule:nonzero;fill:#c9ecf6;fill-opacity:1" d="M29.398 10.66a3.395 3.395 0 1 1-6.753.699 3.395 3.395 0 0 1 6.753-.699Zm0 0"/><path style="stroke:none;fill-rule:nonzero;fill:#add6e2;fill-opacity:1" d="M50.77 8.848a1.358 1.358 0 0 1 2.109 1.71Zm-2.13 6.93a1.358 1.358 0 0 1-1.91.195 1.358 1.358 0 0 1-.199-1.91Zm4.239-5.22-4.238 5.22-2.11-1.716 4.239-5.214Zm0 0"/><path style="stroke:none;fill-rule:nonzero;fill:#c9ecf6;fill-opacity:1" d="M49.66 8.563a3.395 3.395 0 1 0 6.754-.7 3.395 3.395 0 0 0-6.754.7Zm0 0"/><path style="stroke:none;fill-rule:evenodd;fill:#c9ecf6;fill-opacity:1" d="M57.445 28.379V48.89A6.112 6.112 0 0 1 51.332 55H28.254l-2.645-25.516c-.902-8.73 5.442-16.539 14.172-17.441 8.727-.902 16.535 5.437 17.438 14.168Zm0 0"/><path style="stroke:none;fill-rule:nonzero;fill:#3c4c87;fill-opacity:1" d="m36.406 25.633 9.457-.977a6.79 6.79 0 0 1 7.453 6.055 6.79 6.79 0 0 1-6.054 7.453l-9.457.977a6.792 6.792 0 0 1-7.453-6.055 6.795 6.795 0 0 1 6.054-7.453Zm0 0"/><path style="fill:none;stroke-width:1.77778;stroke-linecap:round;stroke-linejoin:miter;stroke:#6ec1ff;stroke-opacity:1;stroke-miterlimit:4" d="M39.317 26.69c-.31-.62-1.006-1.013-1.773-.933-.764.076-1.368.607-1.544 1.275m-3.314.345c-.307-.62-1.007-1.013-1.774-.936-.764.08-1.368.61-1.544 1.278" transform="scale(1.22222)"/><path style="stroke:none;fill-rule:nonzero;fill:white;fill-opacity:1" d="m38.086 41.844 9.457-.98a4.075 4.075 0 0 1-3.633 4.472l-1.351.14a4.075 4.075 0 0 1-4.473-3.632Zm0 0"/><path style="fill:none;stroke-width:1.77778;stroke-linecap:round;stroke-linejoin:miter;stroke:#a2ced8;stroke-opacity:1;stroke-miterlimit:4" d="M31.161 34.236a3.334 3.334 0 0 0 3.66 2.972l1.105-.115a3.334 3.334 0 0 0 2.973-3.66" transform="scale(1.22222)"/><path style="stroke:none;fill-rule:nonzero;fill:#f65539;fill-opacity:1" d="M23.43 32.164a2.445 2.445 0 0 1 2.18-2.68l.757 7.293a2.444 2.444 0 0 1-2.683-2.18Zm36.472-3.774a2.441 2.441 0 0 0-2.683-2.18l.758 7.294a2.449 2.449 0 0 0 2.18-2.684Zm0 0"/></svg>