<svg xmlns="http://www.w3.org/2000/svg" width="36" height="36" fill="none"><g clip-path="url(#a)"><path d="M6.378 26.307a.753.753 0 0 1 .45-.498l5.57-2.19c.35-.137.738-.14 1.09-.005l9.312 3.56c.363.14.56.532.456.907l-1.4 5.018a.753.753 0 0 1-.456.501l-5.671 2.17c-.347.133-.73.133-1.078 0l-9.219-3.534a.753.753 0 0 1-.456-.906l1.402-5.023Z" fill="#403933"/><path d="M12.122 23.98a2.274 2.274 0 0 1 1.645-.007l7.546 2.885a.601.601 0 0 1 0 1.124l-3.623 1.387c-.524.2-1.104.2-1.627 0l-7.488-2.871a.601.601 0 0 1-.004-1.122l3.551-1.396Z" fill="#655B51" stroke="#403933" stroke-width=".471"/><path fill-rule="evenodd" clip-rule="evenodd" d="M8.92 29.017a.418.418 0 0 0-.297.782l4.32 1.64a.418.418 0 0 0 .297-.783l-4.32-1.64Zm.408 1.634a.418.418 0 1 0-.29.785l2.361.876a.418.418 0 0 0 .291-.785l-2.362-.876Z" fill="#F1CD5F"/><path d="M20.154.565a1.395 1.395 0 0 1 2.302.642l1.917 6.94c.089.32.288.597.562.783l5.718 3.879c.763.517.823 1.62.12 2.216l-5.856 4.98c-.22.188-.377.44-.448.72l-1.926 7.61a1.395 1.395 0 0 1-2.204.763l-5.234-4.037a1.394 1.394 0 0 0-1.01-.281l-6.567.744a1.395 1.395 0 0 1-1.491-1.793l2.29-7.508a1.388 1.388 0 0 0-.01-.848L5.884 8.082a1.395 1.395 0 0 1 1.25-1.834l6.9-.358c.332-.018.646-.152.886-.38L20.154.566Z" fill="#FBDD4B"/><path d="m19.863.861-4.729 4.37a1.86 1.86 0 0 1-1.113.488l-6.65.533c-.668.053-.883.927-.316 1.285l7.152 4.509c.723.455 1.681.16 2.022-.622l2.306-5.29 2.07-4.746c.2-.461-.373-.869-.742-.527Z" fill="white"/><path d="m16.834 12.745 13.399 1.188c.612.054.86.816.396 1.22l-5.993 5.229a.465.465 0 0 0-.145.235l-1.993 7.811c-.17.665-1.096.711-1.33.067l-5.29-14.505a.93.93 0 0 1 .956-1.245Zm-2.882-1.023-7.023-4.4c-.551-.346-1.233.184-1.035.803l2.269 7.09c.129.405.585.6.967.417l4.733-2.284a.93.93 0 0 0 .09-1.626ZM8.05 25.416l5.01-.444a1.86 1.86 0 0 0 1.69-1.704l.688-8.592c.039-.476-.58-.693-.848-.297L7.624 24.693a.465.465 0 0 0 .427.723Z" fill="#F2B53C"/><path d="M18.317 3.527a1.395 1.395 0 0 1 2.305.643l1.384 5.044c.087.32.286.598.56.784l4.207 2.861c.761.518.821 1.617.122 2.214l-4.371 3.73a1.4 1.4 0 0 0-.447.72l-1.429 5.642a1.395 1.395 0 0 1-2.205.761l-3.773-2.918a1.395 1.395 0 0 0-1.012-.282l-4.739.543a1.395 1.395 0 0 1-1.493-1.792l1.699-5.568c.084-.276.08-.572-.01-.846L7.306 9.61a1.395 1.395 0 0 1 1.25-1.832l5.08-.27c.331-.017.645-.152.886-.38l3.795-3.6Z" fill="#FFF159"/><path d="m13.323 20.034 2.81.886" stroke="#FABE46" stroke-width="1.57" stroke-linecap="round"/><path d="m13.134 19.981 2.81.886" stroke="white" stroke-width=".589" stroke-linecap="round"/><path d="m12.717 17.827 5.052 1.613" stroke="#FABE46" stroke-width="1.57" stroke-linecap="round"/><path d="m12.527 17.774 5.052 1.613" stroke="white" stroke-width=".589" stroke-linecap="round"/><path d="M11.339 13.275c.217-.27 2.078-2.758 2.467-1.8.181.447-.014 1.318-.145 1.799a11.53 11.53 0 0 1-.431 1.318c-.153.376-.298 1.258-.758 1.13-.327-.092.672-1.553.759-1.664.144-.183 1.638-1.521 1.815-1.211.234.409-.623 1.357-.332 1.795.243.365 1.507-.497 1.774-.659.16-.097.319-.206.471-.326.234-.186-.343 1.436-.413 1.684-.417 1.458 5.278-.327 3.693-2.126-.67-.76-1.687 1.047-.999 1.221.51.13 1.183-.13 1.694-.268.31-.084.59-.372.897-.49.275-.107.694.069 1.293-.283" stroke="#FABE46" stroke-width="1.57" stroke-linecap="round"/><path d="M10.96 13.17c.217-.272 2.078-2.759 2.467-1.8.181.445-.014 1.317-.145 1.798a11.53 11.53 0 0 1-.431 1.318c-.153.376-.298 1.258-.758 1.13-.327-.092.672-1.553.76-1.664.143-.183 1.637-1.521 1.814-1.211.234.409-.623 1.357-.332 1.795.244.365 1.507-.497 1.774-.659.16-.097.319-.206.471-.327.234-.185-.343 1.437-.413 1.685-.417 1.458 5.278-.327 3.693-2.126-.67-.76-1.687 1.047-.999 1.221.51.13 1.183-.13 1.694-.268.31-.085.59-.372.897-.49.275-.107.694.069 1.293-.283" stroke="white" stroke-width=".589" stroke-linecap="round"/></g><defs><clipPath id="a"><path fill="white" d="M0 0h36v36H0z"/></clipPath></defs></svg>