<svg xmlns="http://www.w3.org/2000/svg" width="54" height="54" fill="none"><path d="M30.889 30.8c-2.148 1.054-5.63 1.054-7.778 0L4 23.19c0-.565.006-2.182 0-2.868-.006-.694.53-1.39 1.61-1.92L23.112 9.82c2.148-1.053 5.63-1.053 7.778 0l17.5 8.584c1.073.525 1.61 1.216 1.61 1.906v2.88L30.889 30.8Z" fill="#E6675B"/><path d="M27 12.414V9.03s1.741-.264 3.889.789l17.5 8.583C49.463 18.93 50 19.62 50 20.31v2.88L27 12.413Z" fill="#FFB38C"/><ellipse cx="26.521" cy="10.419" rx="1.438" ry="1.419" fill="#FFB28C"/><path d="M23.111 12.628c2.148-1.053 5.63-1.053 7.778 0l17.5 8.583c2.148 1.054 2.148 2.762 0 3.815l-17.5 8.583c-2.148 1.054-5.63 1.054-7.778 0l-17.5-8.583c-2.148-1.053-2.148-2.761 0-3.815l17.5-8.583Z" fill="#BF564C"/><ellipse cx="27" cy="26" rx="13" ry="7" fill="#E6675B"/><path d="M40 39.375C40 42.482 34.18 45 27 45s-13-2.518-13-5.625V25h26v14.375Z" fill="#E6675B"/><path d="M32 26.912c0-2.087 2.2-3.495 4.18-2.674C37.284 24.695 38 25.835 38 27v4.586c0 .891-1.19 1.456-1.996 1.077a13.396 13.396 0 0 0-2.27-.801C32.755 31.606 32 30.752 32 29.74v-2.829Z" fill="#FFB38C"/><ellipse cx="27" cy="38.5" rx="11" ry="4.5" fill="#993E35"/><path d="M7 17a1 1 0 1 1 2 0v13a1 1 0 1 1-2 0V17Z" fill="#F2C07E"/><path d="M6 29a2 2 0 1 1 4 0v2a2 2 0 1 1-4 0v-2Z" fill="#F2C07E"/></svg>